<svg width="32" height="32" viewBox="0 0 32 32" fill="none" xmlns="http://www.w3.org/2000/svg">
<mask id="path-1-outside-1" maskUnits="userSpaceOnUse" x="0" y="0" width="32" height="32" fill="black">
<rect fill="white" width="32" height="32"/>
<path d="M10.0238 2C10.0238 2.55228 9.57609 3 9.02381 3C8.47152 3 8.02381 2.55228 8.02381 2C8.02381 1.44772 8.47152 1 9.02381 1C9.57609 1 10.0238 1.44772 10.0238 2Z"/>
<path d="M8.30701 4.50293C8.30701 5.05521 7.8593 5.50293 7.30701 5.50293C6.75473 5.50293 6.30701 5.05521 6.30701 4.50293C6.30701 3.95064 6.75473 3.50293 7.30701 3.50293C7.8593 3.50293 8.30701 3.95064 8.30701 4.50293Z"/>
<path d="M6.31188 6.72235C6.31188 7.27463 5.86417 7.72235 5.31188 7.72235C4.7596 7.72235 4.31188 7.27463 4.31188 6.72235C4.31188 6.17006 4.7596 5.72235 5.31188 5.72235C5.86417 5.72235 6.31188 6.17006 6.31188 6.72235Z"/>
<path d="M3.99888 8.71704C3.99888 9.26932 3.55117 9.71704 2.99888 9.71704C2.4466 9.71704 1.99888 9.26932 1.99888 8.71704C1.99888 8.16475 2.4466 7.71704 2.99888 7.71704C3.55117 7.71704 3.99888 8.16475 3.99888 8.71704Z"/>
<path d="M10.0238 28.9358C10.0238 28.3835 9.57609 27.9358 9.02381 27.9358C8.47152 27.9358 8.02381 28.3835 8.02381 28.9358C8.02381 29.4881 8.47152 29.9358 9.02381 29.9358C9.57609 29.9358 10.0238 29.4881 10.0238 28.9358Z"/>
<path d="M8.30701 26.4329C8.30701 25.8806 7.8593 25.4329 7.30701 25.4329C6.75473 25.4329 6.30701 25.8806 6.30701 26.4329C6.30701 26.9851 6.75473 27.4329 7.30701 27.4329C7.8593 27.4329 8.30701 26.9851 8.30701 26.4329Z"/>
<path d="M6.31188 24.2134C6.31188 23.6612 5.86417 23.2134 5.31188 23.2134C4.7596 23.2134 4.31188 23.6612 4.31188 24.2134C4.31188 24.7657 4.7596 25.2134 5.31188 25.2134C5.86417 25.2134 6.31188 24.7657 6.31188 24.2134Z"/>
<path d="M3.99888 22.2188C3.99888 21.6665 3.55117 21.2188 2.99888 21.2188C2.4466 21.2188 1.99888 21.6665 1.99888 22.2188C1.99888 22.771 2.4466 23.2188 2.99888 23.2188C3.55117 23.2188 3.99888 22.771 3.99888 22.2188Z"/>
<path d="M21.1028 2C21.1028 2.55228 21.5506 3 22.1028 3C22.6551 3 23.1028 2.55228 23.1028 2C23.1028 1.44772 22.6551 1 22.1028 1C21.5506 1 21.1028 1.44772 21.1028 2Z"/>
<path d="M22.8196 4.50293C22.8196 5.05521 23.2674 5.50293 23.8196 5.50293C24.3719 5.50293 24.8196 5.05521 24.8196 4.50293C24.8196 3.95064 24.3719 3.50293 23.8196 3.50293C23.2674 3.50293 22.8196 3.95064 22.8196 4.50293Z"/>
<path d="M24.8148 6.72235C24.8148 7.27463 25.2625 7.72235 25.8148 7.72235C26.3671 7.72235 26.8148 7.27463 26.8148 6.72235C26.8148 6.17006 26.3671 5.72235 25.8148 5.72235C25.2625 5.72235 24.8148 6.17006 24.8148 6.72235Z"/>
<path d="M27.1278 8.71704C27.1278 9.26932 27.5755 9.71704 28.1278 9.71704C28.6801 9.71704 29.1278 9.26932 29.1278 8.71704C29.1278 8.16475 28.6801 7.71704 28.1278 7.71704C27.5755 7.71704 27.1278 8.16475 27.1278 8.71704Z"/>
<path d="M21.1028 29.141C21.1028 28.5887 21.5506 28.141 22.1028 28.141C22.6551 28.141 23.1028 28.5887 23.1028 29.141C23.1028 29.6933 22.6551 30.141 22.1028 30.141C21.5506 30.141 21.1028 29.6933 21.1028 29.141Z"/>
<path d="M22.8196 26.6381C22.8196 26.0858 23.2674 25.6381 23.8196 25.6381C24.3719 25.6381 24.8196 26.0858 24.8196 26.6381C24.8196 27.1903 24.3719 27.6381 23.8196 27.6381C23.2674 27.6381 22.8196 27.1903 22.8196 26.6381Z"/>
<path d="M24.8148 24.4186C24.8148 23.8664 25.2625 23.4186 25.8148 23.4186C26.3671 23.4186 26.8148 23.8664 26.8148 24.4186C26.8148 24.9709 26.3671 25.4186 25.8148 25.4186C25.2625 25.4186 24.8148 24.9709 24.8148 24.4186Z"/>
<path d="M27.1278 22.424C27.1278 21.8717 27.5755 21.424 28.1278 21.424C28.6801 21.424 29.1278 21.8717 29.1278 22.424C29.1278 22.9762 28.6801 23.424 28.1278 23.424C27.5755 23.424 27.1278 22.9762 27.1278 22.424Z"/>
<path d="M3.38222 12.2278C3.38222 12.7801 2.93451 13.2278 2.38222 13.2278C1.82994 13.2278 1.38222 12.7801 1.38222 12.2278C1.38222 11.6755 1.82994 11.2278 2.38222 11.2278C2.93451 11.2278 3.38222 11.6755 3.38222 12.2278Z"/>
<path d="M3 17.9661C3 18.5183 2.55228 18.9661 2 18.9661C1.44772 18.9661 1 18.5183 1 17.9661C1 17.4138 1.44772 16.9661 2 16.9661C2.55228 16.9661 3 17.4138 3 17.9661Z"/>
<path d="M30.1205 12.2117C30.1205 12.764 29.6728 13.2117 29.1205 13.2117C28.5682 13.2117 28.1205 12.764 28.1205 12.2117C28.1205 11.6594 28.5682 11.2117 29.1205 11.2117C29.6728 11.2117 30.1205 11.6594 30.1205 12.2117Z"/>
<path d="M30.1205 17.9293C30.1205 18.4815 29.6728 18.9293 29.1205 18.9293C28.5682 18.9293 28.1205 18.4815 28.1205 17.9293C28.1205 17.377 28.5682 16.9293 29.1205 16.9293C29.6728 16.9293 30.1205 17.377 30.1205 17.9293Z"/>
<path d="M18.9186 15.3499C18.9186 17.2134 17.4166 18.7241 15.5638 18.7241C13.711 18.7241 12.209 17.2134 12.209 15.3499C12.209 13.4864 13.711 11.9758 15.5638 11.9758C17.4166 11.9758 18.9186 13.4864 18.9186 15.3499Z"/>
</mask>
<path d="M10.0238 2C10.0238 2.55228 9.57609 3 9.02381 3C8.47152 3 8.02381 2.55228 8.02381 2C8.02381 1.44772 8.47152 1 9.02381 1C9.57609 1 10.0238 1.44772 10.0238 2Z" fill="#8491A0"/>
<path d="M8.30701 4.50293C8.30701 5.05521 7.8593 5.50293 7.30701 5.50293C6.75473 5.50293 6.30701 5.05521 6.30701 4.50293C6.30701 3.95064 6.75473 3.50293 7.30701 3.50293C7.8593 3.50293 8.30701 3.95064 8.30701 4.50293Z" fill="#8491A0"/>
<path d="M6.31188 6.72235C6.31188 7.27463 5.86417 7.72235 5.31188 7.72235C4.7596 7.72235 4.31188 7.27463 4.31188 6.72235C4.31188 6.17006 4.7596 5.72235 5.31188 5.72235C5.86417 5.72235 6.31188 6.17006 6.31188 6.72235Z" fill="#8491A0"/>
<path d="M3.99888 8.71704C3.99888 9.26932 3.55117 9.71704 2.99888 9.71704C2.4466 9.71704 1.99888 9.26932 1.99888 8.71704C1.99888 8.16475 2.4466 7.71704 2.99888 7.71704C3.55117 7.71704 3.99888 8.16475 3.99888 8.71704Z" fill="#8491A0"/>
<path d="M10.0238 28.9358C10.0238 28.3835 9.57609 27.9358 9.02381 27.9358C8.47152 27.9358 8.02381 28.3835 8.02381 28.9358C8.02381 29.4881 8.47152 29.9358 9.02381 29.9358C9.57609 29.9358 10.0238 29.4881 10.0238 28.9358Z" fill="#8491A0"/>
<path d="M8.30701 26.4329C8.30701 25.8806 7.8593 25.4329 7.30701 25.4329C6.75473 25.4329 6.30701 25.8806 6.30701 26.4329C6.30701 26.9851 6.75473 27.4329 7.30701 27.4329C7.8593 27.4329 8.30701 26.9851 8.30701 26.4329Z" fill="#8491A0"/>
<path d="M6.31188 24.2134C6.31188 23.6612 5.86417 23.2134 5.31188 23.2134C4.7596 23.2134 4.31188 23.6612 4.31188 24.2134C4.31188 24.7657 4.7596 25.2134 5.31188 25.2134C5.86417 25.2134 6.31188 24.7657 6.31188 24.2134Z" fill="#8491A0"/>
<path d="M3.99888 22.2188C3.99888 21.6665 3.55117 21.2188 2.99888 21.2188C2.4466 21.2188 1.99888 21.6665 1.99888 22.2188C1.99888 22.771 2.4466 23.2188 2.99888 23.2188C3.55117 23.2188 3.99888 22.771 3.99888 22.2188Z" fill="#8491A0"/>
<path d="M21.1028 2C21.1028 2.55228 21.5506 3 22.1028 3C22.6551 3 23.1028 2.55228 23.1028 2C23.1028 1.44772 22.6551 1 22.1028 1C21.5506 1 21.1028 1.44772 21.1028 2Z" fill="#8491A0"/>
<path d="M22.8196 4.50293C22.8196 5.05521 23.2674 5.50293 23.8196 5.50293C24.3719 5.50293 24.8196 5.05521 24.8196 4.50293C24.8196 3.95064 24.3719 3.50293 23.8196 3.50293C23.2674 3.50293 22.8196 3.95064 22.8196 4.50293Z" fill="#8491A0"/>
<path d="M24.8148 6.72235C24.8148 7.27463 25.2625 7.72235 25.8148 7.72235C26.3671 7.72235 26.8148 7.27463 26.8148 6.72235C26.8148 6.17006 26.3671 5.72235 25.8148 5.72235C25.2625 5.72235 24.8148 6.17006 24.8148 6.72235Z" fill="#8491A0"/>
<path d="M27.1278 8.71704C27.1278 9.26932 27.5755 9.71704 28.1278 9.71704C28.6801 9.71704 29.1278 9.26932 29.1278 8.71704C29.1278 8.16475 28.6801 7.71704 28.1278 7.71704C27.5755 7.71704 27.1278 8.16475 27.1278 8.71704Z" fill="#8491A0"/>
<path d="M21.1028 29.141C21.1028 28.5887 21.5506 28.141 22.1028 28.141C22.6551 28.141 23.1028 28.5887 23.1028 29.141C23.1028 29.6933 22.6551 30.141 22.1028 30.141C21.5506 30.141 21.1028 29.6933 21.1028 29.141Z" fill="#8491A0"/>
<path d="M22.8196 26.6381C22.8196 26.0858 23.2674 25.6381 23.8196 25.6381C24.3719 25.6381 24.8196 26.0858 24.8196 26.6381C24.8196 27.1903 24.3719 27.6381 23.8196 27.6381C23.2674 27.6381 22.8196 27.1903 22.8196 26.6381Z" fill="#8491A0"/>
<path d="M24.8148 24.4186C24.8148 23.8664 25.2625 23.4186 25.8148 23.4186C26.3671 23.4186 26.8148 23.8664 26.8148 24.4186C26.8148 24.9709 26.3671 25.4186 25.8148 25.4186C25.2625 25.4186 24.8148 24.9709 24.8148 24.4186Z" fill="#8491A0"/>
<path d="M27.1278 22.424C27.1278 21.8717 27.5755 21.424 28.1278 21.424C28.6801 21.424 29.1278 21.8717 29.1278 22.424C29.1278 22.9762 28.6801 23.424 28.1278 23.424C27.5755 23.424 27.1278 22.9762 27.1278 22.424Z" fill="#8491A0"/>
<path d="M3.38222 12.2278C3.38222 12.7801 2.93451 13.2278 2.38222 13.2278C1.82994 13.2278 1.38222 12.7801 1.38222 12.2278C1.38222 11.6755 1.82994 11.2278 2.38222 11.2278C2.93451 11.2278 3.38222 11.6755 3.38222 12.2278Z" fill="#8491A0"/>
<path d="M3 17.9661C3 18.5183 2.55228 18.9661 2 18.9661C1.44772 18.9661 1 18.5183 1 17.9661C1 17.4138 1.44772 16.9661 2 16.9661C2.55228 16.9661 3 17.4138 3 17.9661Z" fill="#8491A0"/>
<path d="M30.1205 12.2117C30.1205 12.764 29.6728 13.2117 29.1205 13.2117C28.5682 13.2117 28.1205 12.764 28.1205 12.2117C28.1205 11.6594 28.5682 11.2117 29.1205 11.2117C29.6728 11.2117 30.1205 11.6594 30.1205 12.2117Z" fill="#8491A0"/>
<path d="M30.1205 17.9293C30.1205 18.4815 29.6728 18.9293 29.1205 18.9293C28.5682 18.9293 28.1205 18.4815 28.1205 17.9293C28.1205 17.377 28.5682 16.9293 29.1205 16.9293C29.6728 16.9293 30.1205 17.377 30.1205 17.9293Z" fill="#8491A0"/>
<path d="M18.9186 15.3499C18.9186 17.2134 17.4166 18.7241 15.5638 18.7241C13.711 18.7241 12.209 17.2134 12.209 15.3499C12.209 13.4864 13.711 11.9758 15.5638 11.9758C17.4166 11.9758 18.9186 13.4864 18.9186 15.3499Z" fill="#8491A0"/>
<path d="M14.4359 4.3866L14.9354 4.36337L14.921 4.05405L14.6377 3.9291L14.4359 4.3866ZM12.7191 6.88953L13.2186 6.8663L13.2042 6.55698L12.9209 6.43203L12.7191 6.88953ZM10.724 9.10894L11.2235 9.08572L11.2091 8.77639L10.9257 8.65145L10.724 9.10894ZM8.41099 11.1036L8.91045 11.0804L8.89607 10.7711L8.61273 10.6461L8.41099 11.1036ZM14.4359 26.5492L14.6377 27.0067L14.921 26.8817L14.9354 26.5724L14.4359 26.5492ZM12.7191 24.0463L12.9209 24.5038L13.2042 24.3788L13.2186 24.0695L12.7191 24.0463ZM10.724 21.8268L10.9257 22.2843L11.2091 22.1594L11.2235 21.8501L10.724 21.8268ZM8.41099 19.8322L8.61273 20.2897L8.89607 20.1647L8.91045 19.8554L8.41099 19.8322ZM16.6907 4.3866L16.489 3.9291L16.2057 4.05405L16.1913 4.36337L16.6907 4.3866ZM18.4075 6.88953L18.2058 6.43203L17.9225 6.55698L17.9081 6.8663L18.4075 6.88953ZM20.4027 9.10894L20.2009 8.65145L19.9176 8.77639L19.9032 9.08572L20.4027 9.10894ZM22.7157 11.1036L22.5139 10.6461L22.2306 10.7711L22.2162 11.0804L22.7157 11.1036ZM16.6907 26.7544L16.1913 26.7776L16.2057 27.0869L16.489 27.2119L16.6907 26.7544ZM18.4075 24.2515L17.9081 24.2747L17.9225 24.584L18.2058 24.709L18.4075 24.2515ZM20.4027 22.032L19.9032 22.0553L19.9176 22.3646L20.2009 22.4895L20.4027 22.032ZM22.7157 20.0374L22.2162 20.0606L22.2306 20.3699L22.5139 20.4949L22.7157 20.0374ZM8.82207 2.45749L14.2342 4.84409L14.6377 3.9291L9.22555 1.54251L8.82207 2.45749ZM13.9365 4.40982L14.1505 9.01261L15.1494 8.96616L14.9354 4.36337L13.9365 4.40982ZM7.10527 4.96042L12.5174 7.34702L12.9209 6.43203L7.50875 4.04544L7.10527 4.96042ZM12.2197 6.91275L12.4337 11.5155L13.4326 11.4691L13.2186 6.8663L12.2197 6.91275ZM5.11014 7.17984L10.5223 9.56644L10.9257 8.65145L5.51363 6.26486L5.11014 7.17984ZM10.2245 9.13217L10.4386 13.735L11.4375 13.6885L11.2235 9.08572L10.2245 9.13217ZM2.79714 9.17453L8.20925 11.5611L8.61273 10.6461L3.20062 8.25954L2.79714 9.17453ZM7.91153 11.1269L8.12559 15.7296L9.12451 15.6832L8.91045 11.0804L7.91153 11.1269ZM9.22555 29.3933L14.6377 27.0067L14.2342 26.0917L8.82207 28.4783L9.22555 29.3933ZM14.9354 26.5724L15.1494 21.9696L14.1505 21.9232L13.9365 26.526L14.9354 26.5724ZM7.50875 26.8904L12.9209 24.5038L12.5174 23.5888L7.10527 25.9754L7.50875 26.8904ZM13.2186 24.0695L13.4326 19.4667L12.4337 19.4202L12.2197 24.023L13.2186 24.0695ZM5.51363 24.6709L10.9257 22.2843L10.5223 21.3694L5.11014 23.756L5.51363 24.6709ZM11.2235 21.8501L11.4375 17.2473L10.4386 17.2008L10.2245 21.8036L11.2235 21.8501ZM3.20062 22.6762L8.61273 20.2897L8.20925 19.3747L2.79714 21.7613L3.20062 22.6762ZM8.91045 19.8554L9.12451 15.2526L8.12559 15.2061L7.91153 19.8089L8.91045 19.8554ZM21.9011 1.54251L16.489 3.9291L16.8925 4.84409L22.3046 2.45749L21.9011 1.54251ZM16.1913 4.36337L15.9772 8.96616L16.9761 9.01261L17.1902 4.40982L16.1913 4.36337ZM23.6179 4.04544L18.2058 6.43203L18.6093 7.34702L24.0214 4.96042L23.6179 4.04544ZM17.9081 6.8663L17.694 11.4691L18.6929 11.5155L18.907 6.91275L17.9081 6.8663ZM25.613 6.26486L20.2009 8.65145L20.6044 9.56644L26.0165 7.17984L25.613 6.26486ZM19.9032 9.08572L19.6891 13.6885L20.6881 13.735L20.9021 9.13217L19.9032 9.08572ZM27.926 8.25954L22.5139 10.6461L22.9174 11.5611L28.3295 9.17453L27.926 8.25954ZM22.2162 11.0804L22.0021 15.6832L23.0011 15.7296L23.2151 11.1269L22.2162 11.0804ZM22.3046 28.6835L16.8925 26.2969L16.489 27.2119L21.9011 29.5985L22.3046 28.6835ZM17.1902 26.7312L16.9761 22.1284L15.9772 22.1748L16.1913 26.7776L17.1902 26.7312ZM24.0214 26.1806L18.6093 23.794L18.2058 24.709L23.6179 27.0956L24.0214 26.1806ZM18.907 24.2282L18.6929 19.6254L17.694 19.6719L17.9081 24.2747L18.907 24.2282ZM26.0165 23.9612L20.6044 21.5746L20.2009 22.4895L25.613 24.8761L26.0165 23.9612ZM20.9021 22.0088L20.6881 17.406L19.6891 17.4525L19.9032 22.0553L20.9021 22.0088ZM28.3295 21.9665L22.9174 19.5799L22.5139 20.4949L27.926 22.8814L28.3295 21.9665ZM23.2151 20.0141L23.0011 15.4113L22.0021 15.4578L22.2162 20.0606L23.2151 20.0141ZM1.88148 12.713C4.26832 13.3078 5.9427 13.6807 7.06799 13.9052C8.17091 14.1253 8.78655 14.2117 9.0233 14.2117V13.2117C8.90452 13.2117 8.39147 13.1496 7.2637 12.9246C6.1583 12.704 4.49999 12.3349 2.12329 11.7426L1.88148 12.713ZM29.0006 11.7426C26.624 12.3349 24.9656 12.704 23.8602 12.9246C22.7325 13.1496 22.2194 13.2117 22.1006 13.2117V14.2117C22.3374 14.2117 22.953 14.1253 24.056 13.9052C25.1812 13.6807 26.8556 13.3078 29.2425 12.713L29.0006 11.7426ZM29.2547 17.4843C27.1113 16.8892 25.6067 16.5159 24.5946 16.2909C24.0888 16.1784 23.7033 16.1024 23.421 16.0542C23.151 16.0082 22.946 15.9822 22.8188 15.9822V16.9822C22.8511 16.9822 22.9792 16.9933 23.2527 17.04C23.5139 17.0845 23.8823 17.1569 24.3776 17.267C25.3678 17.4872 26.8548 17.8558 28.9872 18.4478L29.2547 17.4843ZM8.69731 15.9979C6.38879 16.5901 4.77829 16.959 3.70501 17.1795C2.6087 17.4047 2.11324 17.4661 2.00124 17.4661V18.4661C2.23462 18.4661 2.8356 18.379 3.90624 18.1591C4.99992 17.9344 6.6269 17.5614 8.9458 16.9665L8.69731 15.9979ZM9.02381 2V4C10.1284 4 11.0238 3.10457 11.0238 2H9.02381ZM9.02381 2H7.02381C7.02381 3.10457 7.91924 4 9.02381 4V2ZM9.02381 2V0C7.91924 0 7.02381 0.89543 7.02381 2H9.02381ZM9.02381 2H11.0238C11.0238 0.89543 10.1284 0 9.02381 0V2ZM7.30701 4.50293V6.50293C8.41158 6.50293 9.30701 5.6075 9.30701 4.50293H7.30701ZM7.30701 4.50293H5.30701C5.30701 5.6075 6.20244 6.50293 7.30701 6.50293V4.50293ZM7.30701 4.50293V2.50293C6.20244 2.50293 5.30701 3.39836 5.30701 4.50293H7.30701ZM7.30701 4.50293H9.30701C9.30701 3.39836 8.41158 2.50293 7.30701 2.50293V4.50293ZM5.31188 6.72235V8.72235C6.41645 8.72235 7.31188 7.82692 7.31188 6.72235H5.31188ZM5.31188 6.72235H3.31188C3.31188 7.82692 4.20731 8.72235 5.31188 8.72235V6.72235ZM5.31188 6.72235V4.72235C4.20731 4.72235 3.31188 5.61778 3.31188 6.72235H5.31188ZM5.31188 6.72235H7.31188C7.31188 5.61778 6.41645 4.72235 5.31188 4.72235V6.72235ZM2.99888 8.71704L2.99888 8.71704V10.717C4.10345 10.717 4.99888 9.82161 4.99888 8.71704H2.99888ZM2.99888 8.71704V8.71704H0.998881C0.998881 9.82161 1.89431 10.717 2.99888 10.717V8.71704ZM2.99888 8.71704V6.71704C1.89431 6.71704 0.998881 7.61247 0.998881 8.71704H2.99888ZM2.99888 8.71704H2.99888H4.99888C4.99888 7.61247 4.10345 6.71704 2.99888 6.71704V8.71704ZM11.0238 28.9358C11.0238 27.8312 10.1284 26.9358 9.02381 26.9358V28.9358H11.0238ZM9.02381 26.9358C7.91924 26.9358 7.02381 27.8312 7.02381 28.9358H9.02381V26.9358ZM7.02381 28.9358C7.02381 30.0404 7.91924 30.9358 9.02381 30.9358V28.9358H7.02381ZM9.02381 30.9358C10.1284 30.9358 11.0238 30.0404 11.0238 28.9358H9.02381V30.9358ZM9.30701 26.4329C9.30701 25.3283 8.41158 24.4329 7.30701 24.4329V26.4329H9.30701ZM7.30701 24.4329C6.20244 24.4329 5.30701 25.3283 5.30701 26.4329H7.30701V24.4329ZM5.30701 26.4329C5.30701 27.5374 6.20244 28.4329 7.30701 28.4329V26.4329H5.30701ZM7.30701 28.4329C8.41158 28.4329 9.30701 27.5374 9.30701 26.4329H7.30701V28.4329ZM7.31188 24.2134C7.31188 23.1089 6.41645 22.2134 5.31188 22.2134V24.2134H7.31188ZM5.31188 22.2134C4.20731 22.2134 3.31188 23.1089 3.31188 24.2134H5.31188V22.2134ZM3.31188 24.2134C3.31188 25.318 4.20731 26.2134 5.31188 26.2134V24.2134H3.31188ZM5.31188 26.2134C6.41645 26.2134 7.31188 25.318 7.31188 24.2134H5.31188V26.2134ZM4.99888 22.2188C4.99888 21.1142 4.10345 20.2188 2.99888 20.2188V22.2188H2.99888H4.99888ZM2.99888 20.2188C1.89431 20.2188 0.998881 21.1142 0.998881 22.2188H2.99888V20.2188ZM0.998881 22.2188C0.998881 23.3233 1.89431 24.2188 2.99888 24.2188V22.2188H0.998881ZM2.99888 24.2188C4.10345 24.2188 4.99888 23.3233 4.99888 22.2188H2.99888H2.99888V24.2188ZM20.1028 2C20.1028 3.10457 20.9983 4 22.1028 4V2H20.1028ZM22.1028 4C23.2074 4 24.1028 3.10457 24.1028 2H22.1028V4ZM24.1028 2C24.1028 0.89543 23.2074 0 22.1028 0V2H24.1028ZM22.1028 0C20.9983 0 20.1028 0.89543 20.1028 2H22.1028V0ZM21.8196 4.50293C21.8196 5.6075 22.7151 6.50293 23.8196 6.50293V4.50293H21.8196ZM23.8196 6.50293C24.9242 6.50293 25.8196 5.6075 25.8196 4.50293H23.8196V6.50293ZM25.8196 4.50293C25.8196 3.39836 24.9242 2.50293 23.8196 2.50293V4.50293H25.8196ZM23.8196 2.50293C22.7151 2.50293 21.8196 3.39836 21.8196 4.50293H23.8196V2.50293ZM23.8148 6.72235C23.8148 7.82692 24.7102 8.72235 25.8148 8.72235V6.72235H23.8148ZM25.8148 8.72235C26.9193 8.72235 27.8148 7.82692 27.8148 6.72235H25.8148V8.72235ZM27.8148 6.72235C27.8148 5.61778 26.9193 4.72235 25.8148 4.72235V6.72235H27.8148ZM25.8148 4.72235C24.7102 4.72235 23.8148 5.61778 23.8148 6.72235H25.8148V4.72235ZM26.1278 8.71704C26.1278 9.82161 27.0232 10.717 28.1278 10.717V8.71704V8.71704H26.1278ZM28.1278 10.717C29.2323 10.717 30.1278 9.82161 30.1278 8.71704H28.1278V8.71704V10.717ZM30.1278 8.71704C30.1278 7.61247 29.2323 6.71704 28.1278 6.71704V8.71704H30.1278ZM28.1278 6.71704C27.0232 6.71704 26.1278 7.61247 26.1278 8.71704H28.1278V6.71704ZM22.1028 29.141V27.141C20.9983 27.141 20.1028 28.0364 20.1028 29.141H22.1028ZM22.1028 29.141H24.1028C24.1028 28.0364 23.2074 27.141 22.1028 27.141V29.141ZM22.1028 29.141V31.141C23.2074 31.141 24.1028 30.2456 24.1028 29.141H22.1028ZM22.1028 29.141H20.1028C20.1028 30.2456 20.9983 31.141 22.1028 31.141V29.141ZM23.8196 26.6381V24.6381C22.7151 24.6381 21.8196 25.5335 21.8196 26.6381H23.8196ZM23.8196 26.6381H25.8196C25.8196 25.5335 24.9242 24.6381 23.8196 24.6381V26.6381ZM23.8196 26.6381V28.6381C24.9242 28.6381 25.8196 27.7426 25.8196 26.6381H23.8196ZM23.8196 26.6381H21.8196C21.8196 27.7426 22.7151 28.6381 23.8196 28.6381V26.6381ZM25.8148 24.4186V22.4186C24.7102 22.4186 23.8148 23.3141 23.8148 24.4186H25.8148ZM25.8148 24.4186H27.8148C27.8148 23.3141 26.9193 22.4186 25.8148 22.4186V24.4186ZM25.8148 24.4186V26.4186C26.9193 26.4186 27.8148 25.5232 27.8148 24.4186H25.8148ZM25.8148 24.4186H23.8148C23.8148 25.5232 24.7102 26.4186 25.8148 26.4186V24.4186ZM28.1278 22.424V20.424C27.0232 20.424 26.1278 21.3194 26.1278 22.424H28.1278ZM28.1278 22.424H30.1278C30.1278 21.3194 29.2323 20.424 28.1278 20.424V22.424ZM28.1278 22.424V24.424C29.2323 24.424 30.1278 23.5285 30.1278 22.424H28.1278ZM28.1278 22.424H26.1278C26.1278 23.5285 27.0232 24.424 28.1278 24.424V22.424ZM2.38222 12.2278H2.38222V14.2278C3.48679 14.2278 4.38222 13.3324 4.38222 12.2278H2.38222ZM2.38222 12.2278H0.382222C0.382222 13.3324 1.27765 14.2278 2.38222 14.2278V12.2278ZM2.38222 12.2278V10.2278C1.27765 10.2278 0.382222 11.1232 0.382222 12.2278H2.38222ZM2.38222 12.2278H2.38222H4.38222C4.38222 11.1232 3.48679 10.2278 2.38222 10.2278V12.2278ZM2 17.9661V19.9661C3.10457 19.9661 4 19.0706 4 17.9661H2ZM2 17.9661H0C0 19.0706 0.89543 19.9661 2 19.9661V17.9661ZM2 17.9661V15.9661C0.89543 15.9661 0 16.8615 0 17.9661H2ZM2 17.9661H4C4 16.8615 3.10457 15.9661 2 15.9661V17.9661ZM29.1205 12.2117V14.2117C30.2251 14.2117 31.1205 13.3163 31.1205 12.2117H29.1205ZM29.1205 12.2117H27.1205C27.1205 13.3163 28.016 14.2117 29.1205 14.2117V12.2117ZM29.1205 12.2117V10.2117C28.016 10.2117 27.1205 11.1072 27.1205 12.2117H29.1205ZM29.1205 12.2117H31.1205C31.1205 11.1072 30.2251 10.2117 29.1205 10.2117V12.2117ZM29.1205 17.9293V19.9293C30.2251 19.9293 31.1205 19.0338 31.1205 17.9293H29.1205ZM29.1205 17.9293H27.1205C27.1205 19.0338 28.016 19.9293 29.1205 19.9293V17.9293ZM29.1205 17.9293V17.9293V15.9293C28.016 15.9293 27.1205 16.8247 27.1205 17.9293H29.1205ZM29.1205 17.9293V17.9293H31.1205C31.1205 16.8247 30.2251 15.9293 29.1205 15.9293V17.9293ZM17.9186 15.3499C17.9186 16.6666 16.8589 17.7241 15.5638 17.7241V19.7241C17.9743 19.7241 19.9186 17.7603 19.9186 15.3499H17.9186ZM15.5638 17.7241C14.2687 17.7241 13.209 16.6666 13.209 15.3499H11.209C11.209 17.7603 13.1533 19.7241 15.5638 19.7241V17.7241ZM13.209 15.3499C13.209 14.0333 14.2687 12.9758 15.5638 12.9758V10.9758C13.1533 10.9758 11.209 12.9396 11.209 15.3499H13.209ZM15.5638 12.9758C16.8589 12.9758 17.9186 14.0333 17.9186 15.3499H19.9186C19.9186 12.9396 17.9743 10.9758 15.5638 10.9758V12.9758Z" fill="#5221E6" mask="url(#path-1-outside-1)"/>
</svg>
